<?xml version="1.0" encoding="utf-8"?>
<!-- Generator: Adobe Illustrator 19.0.0, SVG Export Plug-In . SVG Version: 6.00 Build 0)  -->
<svg version="1.1" id="Layer_1" xmlns="http://www.w3.org/2000/svg" xmlns:xlink="http://www.w3.org/1999/xlink" x="0px" y="0px"
	 viewBox="0 0 85.2 48.1" style="enable-background:new 0 0 85.2 48.1;" xml:space="preserve">
<style type="text/css">
	.st0{fill:#303030;}
	.st1{fill:#FF5A5A;}
</style>
<g id="XMLID_82_">
	<g id="logo_4_">
		<g id="XMLID_169_">
			<path id="XMLID_175_" class="st0" d="M39.1,22.2c-0.9,1.4-1.7,2.7-2.5,4c-0.8,1.3-1.6,2.5-2.2,3.6c-0.6,1.1-1.2,2.1-1.5,2.9
				c-0.4,0.9-0.6,1.5-0.6,2c0,0.4,0.1,0.7,0.2,0.9c0.1,0.3,0.4,0.4,0.7,0.4c0.5,0,1.1-0.2,1.7-0.6c0.6-0.4,1.3-0.9,1.9-1.5
				c0.7-0.6,1.3-1.3,2-2c0.7-0.8,1.3-1.5,1.9-2.2c0.6-0.7,1.1-1.4,1.6-2.1c0.5-0.7,0.8-1.2,1.1-1.6l0.3,0.1c-0.6,0.9-1.4,2-2.4,3.3
				c-1,1.3-2,2.6-3.2,3.8c-1.2,1.3-2.4,2.2-3.4,2.9c-1,0.7-2.2,1-3.5,1c-1.1,0-1.9-0.3-2.5-0.9S28,34.6,28,33.5
				c0-1.2,0.5-2.7,1.5-4.5c1-1.8,2.3-4,3.9-6.7L39.1,22.2z M37.1,16c0-0.8,0.3-1.4,0.8-2c0.5-0.5,1.2-0.8,2-0.8c0.8,0,1.4,0.3,2,0.8
				c0.5,0.5,0.8,1.2,0.8,2c0,0.8-0.3,1.4-0.8,2c-0.5,0.5-1.2,0.8-2,0.8c-0.8,0-1.4-0.3-2-0.8C37.3,17.4,37.1,16.8,37.1,16z"/>
			<path id="XMLID_173_" class="st0" d="M50.1,22.2c-0.4,0.7-1,1.6-1.7,2.7c-0.7,1.1-1.5,2.2-2.2,3.4c-0.7,1.2-1.4,2.3-1.9,3.5
				c-0.5,1.1-0.8,2.1-0.8,2.9c0,0.5,0.1,1,0.4,1.3c0.3,0.3,0.7,0.5,1.2,0.5c0.8,0,1.7-0.3,2.5-0.9c0.9-0.6,1.7-1.4,2.4-2.4
				c0.8-1,1.5-2.1,2.1-3.4c0.6-1.3,1.1-2.5,1.5-3.8c-0.1-0.2-0.2-0.5-0.2-0.8c0-0.3-0.1-0.6-0.1-0.9c0-0.7,0.2-1.3,0.6-1.9
				c0.4-0.6,1-0.8,1.7-0.8c1,0,1.7,0.3,2.2,0.9c0.4,0.6,0.7,1.4,0.7,2.4c0,0.7-0.1,1.3-0.2,1.9c0.5,0.5,1,0.8,1.5,1
				c0.5,0.2,1,0.2,1.4,0.2c0.9,0,1.6-0.2,2.3-0.7c0.6-0.5,1.2-1,1.6-1.6l0.4,0.2c-0.2,0.3-0.4,0.5-0.7,0.8c-0.3,0.3-0.6,0.6-1,0.8
				c-0.4,0.2-0.8,0.4-1.2,0.6c-0.4,0.2-0.9,0.2-1.4,0.2c-1.1,0-2.1-0.4-3-1.1c-0.4,1.4-1,2.7-1.9,3.9c-0.9,1.2-2,2.2-3.2,3
				c-1.2,0.8-2.6,1.5-4,2c-1.4,0.5-2.8,0.7-4.3,0.7c-1.6,0-2.9-0.4-3.7-1.3c-0.9-0.9-1.3-2.1-1.3-3.6c0-0.7,0.1-1.4,0.4-2.1
				c0.2-0.7,0.6-1.5,1-2.3c0.4-0.8,0.9-1.7,1.5-2.6c0.6-0.9,1.2-1.9,1.9-2.9L50.1,22.2z"/>
			<path id="XMLID_170_" class="st0" d="M82.4,26.3c-0.6,0.9-1.3,1.8-2.1,2.7c-0.8,0.9-1.6,1.8-2.6,2.7c-1.8,1.8-3.6,3.1-5.4,4
				c-1.7,0.9-3.7,1.4-5.8,1.4c-1.8,0-3.2-0.4-4.2-1.3c-1-0.9-1.4-2.1-1.4-3.7c0-1.4,0.4-2.7,1.2-4c0.8-1.3,1.8-2.3,3-3.3
				c1.2-0.9,2.5-1.7,4-2.2c1.4-0.6,2.8-0.8,4.1-0.8c1.3,0,2.3,0.2,3.2,0.6c0.8,0.4,1.2,1.1,1.2,2c0,0.9-0.5,1.7-1.4,2.4
				c-0.9,0.7-2,1.3-3.2,1.8c-1.2,0.5-2.5,0.9-3.7,1.2c-1.3,0.3-2.2,0.5-3,0.7c-0.1,0.3-0.1,0.5-0.1,0.8c0,0.3,0,0.5,0,0.8
				c0,0.5,0.1,1,0.2,1.4c0.1,0.5,0.3,0.9,0.5,1.2c0.3,0.3,0.6,0.6,1,0.8c0.4,0.2,0.9,0.3,1.5,0.3c1.3,0,2.6-0.5,4-1.4
				c1.4-0.9,2.9-2.1,4.4-3.5c0.9-0.9,1.8-1.8,2.5-2.6c0.7-0.9,1.3-1.6,1.8-2.3L82.4,26.3z M73.6,23.3c0-0.7-0.4-1.1-1.1-1.1
				c-0.6,0-1.2,0.3-1.9,0.9c-0.7,0.6-1.3,1.3-1.9,2.2c-0.6,0.8-1.1,1.7-1.5,2.6c-0.4,0.9-0.7,1.6-0.8,2.2c1.1-0.2,2.1-0.6,3-1.1
				c0.9-0.5,1.7-1,2.3-1.7c0.6-0.6,1.1-1.3,1.4-2C73.5,24.6,73.6,24,73.6,23.3z"/>
		</g>
		<path id="XMLID_166_" class="st0" d="M24.3,25.8L3.1,25.9c-0.2,0-0.4-0.2-0.3-0.4c0.2-0.1,1-0.9,1.1-2c0-0.5-0.1-0.9-0.2-1.2
			c0,0-0.1-0.2,0-0.4c0.1-0.1,0.3-0.2,0.5-0.1l21.2,0L24.3,25.8z"/>
		<path id="XMLID_163_" class="st0" d="M19.4,10.1L10,43.7c-0.1,0.3-0.4,0.5-0.7,0.6l-3.7,0.1c-0.5,0-0.9-0.5-0.8-1l9.7-33.8
			c0.1-0.3,0.4-0.6,0.7-0.6l3.4,0C19.1,9.2,19.5,9.7,19.4,10.1z"/>
		<path id="XMLID_160_" class="st0" d="M32.7,4.3L22.1,43.9c-0.1,0.2-0.3,0.4-0.5,0.4l-4.1,0c-0.4,0-0.6-0.3-0.5-0.7L27.7,4
			c0.1-0.2,0.3-0.4,0.5-0.4l3.9,0.1C32.6,3.7,32.8,4,32.7,4.3z"/>
		<path id="XMLID_157_" class="st0" d="M3,22.3"/>
	</g>
	<g id="XMLID_83_">
		<g id="XMLID_45_">
			<path id="XMLID_48_" class="st1" d="M49.8,15.7c0,0.6,0.1,0.9,0.3,1.1c0.2,0.2,0.5,0.3,0.8,0.3c0.3,0,0.6-0.1,0.8-0.3
				c0.2-0.2,0.3-0.6,0.3-1.1V8c0-0.4,0.3-0.7,0.7-0.7h2.4c0.4,0,0.7,0.3,0.7,0.7v6.9c0,0.8-0.1,1.5-0.3,2c-0.2,0.5-0.5,1-0.9,1.3
				c-0.4,0.3-0.9,0.5-1.5,0.7c-0.6,0.1-1.3,0.2-2.1,0.2c-0.8,0-1.5-0.1-2.1-0.2c-0.6-0.1-1.1-0.3-1.5-0.7c-0.4-0.3-0.7-0.8-0.9-1.3
				c-0.2-0.5-0.3-1.2-0.3-2V8c0-0.4,0.3-0.7,0.7-0.7h2.4c0.4,0,0.7,0.3,0.7,0.7V15.7z"/>
			<path id="XMLID_46_" class="st1" d="M60.3,7.3c0.4,0,0.7,0.3,0.7,0.7v3.8h0l2.6-4.1c0.1-0.2,0.3-0.3,0.6-0.3h2.3
				c0.5,0,0.9,0.6,0.5,1.1L64.3,12c-0.2,0.2-0.2,0.5,0,0.7l3.2,5.1c0.3,0.4,0,1-0.6,1h-2.6c-0.2,0-0.5-0.1-0.6-0.4l-1.5-2.8
				c-0.2-0.4-0.8-0.5-1.1-0.1v0c-0.1,0.1-0.1,0.3-0.1,0.4v2.2c0,0.4-0.3,0.7-0.7,0.7h-2.4c-0.4,0-0.7-0.3-0.7-0.7V8
				c0-0.4,0.3-0.7,0.7-0.7H60.3z"/>
		</g>
	</g>
</g>
</svg>
